<svg width="392" height="94" viewBox="0 0 392 94" fill="none" xmlns="http://www.w3.org/2000/svg">
<path d="M0 93.5L58 45.5L124.5 93.5L160 56.5L196.5 93.5L291 1L392 93.5H196.5H124.5H0Z" fill="white"/>
<path d="M249 40.8361L292.24 0L332 36.9836L303.671 30.8197L295.719 47L279.317 29.2787L249 40.8361Z" fill="#D9D9D9"/>
<path d="M26 71.8837L57.7698 45L95 71.8837L66.705 65.1628L57.7698 79L49.3309 65.1628L26 71.8837Z" fill="#D9D9D9"/>
<path d="M140 77.375L160.241 56L182 78.125L165.807 70.25L160.241 83L156.193 70.25L140 77.375Z" fill="#D9D9D9"/>
</svg>
