<svg width="393" height="146" viewBox="0 0 393 146" fill="none" xmlns="http://www.w3.org/2000/svg">
<g filter="url(#filter0_d_157_431)">
<path d="M0 123.5L58 75.5L124.5 123.5L160 86.5L196.5 123.5L291 31L392 123.5H196.5H124.5H0Z" fill="white"/>
<path d="M249 70.8361L292.24 30L332 66.9836L303.671 60.8197L295.719 77L279.317 59.2787L249 70.8361Z" fill="#DEEBEE"/>
<path d="M26 101.884L57.7698 75L95 101.884L66.705 95.1628L57.7698 109L49.3309 95.1628L26 101.884Z" fill="#DEEBEE"/>
<path d="M140 107.375L160.241 86L182 108.125L165.807 100.25L160.241 113L156.193 100.25L140 107.375Z" fill="#DEEBEE"/>
</g>
<defs>
<filter id="filter0_d_157_431" x="-26" y="0" width="444" height="145.5" filterUnits="userSpaceOnUse" color-interpolation-filters="sRGB">
<feFlood flood-opacity="0" result="BackgroundImageFix"/>
<feColorMatrix in="SourceAlpha" type="matrix" values="0 0 0 0 0 0 0 0 0 0 0 0 0 0 0 0 0 0 127 0" result="hardAlpha"/>
<feOffset dy="-4"/>
<feGaussianBlur stdDeviation="13"/>
<feComposite in2="hardAlpha" operator="out"/>
<feColorMatrix type="matrix" values="0 0 0 0 0 0 0 0 0 0 0 0 0 0 0 0 0 0 0.25 0"/>
<feBlend mode="normal" in2="BackgroundImageFix" result="effect1_dropShadow_157_431"/>
<feBlend mode="normal" in="SourceGraphic" in2="effect1_dropShadow_157_431" result="shape"/>
</filter>
</defs>
</svg>
