<svg width="24" height="24" viewBox="0 0 24 24" fill="none" xmlns="http://www.w3.org/2000/svg">
<g clip-path="url(#clip0_850_150)">
<path fill-rule="evenodd" clip-rule="evenodd" d="M12.707 16.7071C12.5194 16.8946 12.2651 16.9999 12 16.9999C11.7348 16.9999 11.4805 16.8946 11.293 16.7071L5.63598 11.0501C5.54047 10.9579 5.46428 10.8475 5.41188 10.7255C5.35947 10.6035 5.33188 10.4723 5.33073 10.3395C5.32957 10.2067 5.35487 10.075 5.40516 9.95215C5.45544 9.82925 5.52969 9.7176 5.62358 9.6237C5.71747 9.52981 5.82913 9.45556 5.95202 9.40528C6.07492 9.355 6.2066 9.32969 6.33938 9.33085C6.47216 9.332 6.60338 9.35959 6.72538 9.412C6.84739 9.46441 6.95773 9.54059 7.04998 9.6361L12 14.5861L16.95 9.6361C17.1386 9.45394 17.3912 9.35315 17.6534 9.35542C17.9156 9.3577 18.1664 9.46287 18.3518 9.64828C18.5372 9.83369 18.6424 10.0845 18.6447 10.3467C18.6469 10.6089 18.5461 10.8615 18.364 11.0501L12.707 16.7071Z" fill="white"/>
</g>
<defs>
<clipPath id="clip0_850_150">
<rect width="24" height="24" fill="white"/>
</clipPath>
</defs>
</svg>
