<svg width="27" height="27" viewBox="0 0 27 27" fill="none" xmlns="http://www.w3.org/2000/svg">
<path d="M7.25 8.63462V6.78846C7.25 5.31957 7.88214 3.91084 9.00736 2.87218C10.1326 1.83351 11.6587 1.25 13.25 1.25C14.8413 1.25 16.3674 1.83351 17.4926 2.87218C18.6179 3.91084 19.25 5.31957 19.25 6.78846V8.63462M2.25 8.63462C1.98478 8.63462 1.73043 8.73187 1.54289 8.90498C1.35536 9.07809 1.25 9.31288 1.25 9.55769V22.0192C1.25 23.7638 2.86 25.25 4.75 25.25H21.75C23.64 25.25 25.25 23.836 25.25 22.0913V9.55769C25.25 9.31288 25.1446 9.07809 24.9571 8.90498C24.7696 8.73187 24.5152 8.63462 24.25 8.63462H2.25Z" stroke="black" stroke-width="2.5" stroke-linecap="round" stroke-linejoin="round"/>
</svg>
