<svg width="92" height="42" viewBox="0 0 92 42" fill="none" xmlns="http://www.w3.org/2000/svg">
<path d="M17.2926 39.0131V41.0587C17.2926 41.2433 17.254 41.3925 17.1767 41.5038C17.0993 41.6151 16.9978 41.6695 16.877 41.6695H15.5674C15.3838 41.6695 15.2436 41.6269 15.1494 41.544C15.0551 41.4612 15.0068 41.3357 15.0068 41.17C15.0068 40.9853 15.0624 40.8598 15.1735 40.7911C15.2847 40.7248 15.5215 40.6917 15.8863 40.6917H16.227V33.5889H15.9371C15.5312 33.5889 15.2702 33.5534 15.1518 33.4824C15.0334 33.4113 14.9754 33.2811 14.9754 33.0893C14.9754 32.9236 15.0237 32.7981 15.1204 32.7153C15.217 32.6324 15.3572 32.5898 15.5408 32.5898H16.8939C17.022 32.5898 17.1211 32.6158 17.1911 32.6655C17.2612 32.7176 17.2975 32.7863 17.2975 32.8739V37.8482L19.3441 36.1696C19.1894 36.1057 19.0734 36.0323 19.001 35.9541C18.9285 35.876 18.8922 35.7837 18.8922 35.6771C18.8922 35.5374 18.943 35.4333 19.0469 35.3646C19.1508 35.2959 19.3006 35.2604 19.5011 35.2604H21.4197C21.5985 35.2604 21.7362 35.3007 21.8304 35.3788C21.9247 35.4569 21.973 35.5753 21.973 35.7316C21.973 36.0086 21.7435 36.172 21.2868 36.2169C21.1974 36.2264 21.1273 36.2359 21.0741 36.2454C20.8808 36.269 20.6682 36.3424 20.4362 36.4632C20.2043 36.5863 19.9723 36.7497 19.7355 36.9533L18.7086 37.834L21.3907 40.6917H21.9996C22.2025 40.6917 22.3475 40.7296 22.4345 40.803C22.5215 40.8764 22.565 40.9995 22.565 41.17C22.565 41.3309 22.5167 41.4564 22.42 41.5417C22.3234 41.6269 22.1832 41.6695 21.9996 41.6695H20.081C19.8732 41.6695 19.7234 41.634 19.6268 41.5653C19.5301 41.4967 19.4842 41.3854 19.4842 41.2315C19.4842 41.106 19.5301 40.9995 19.6219 40.9095C19.7138 40.8195 19.8515 40.7462 20.0351 40.6917L17.933 38.4448L17.295 39.0131H17.2926Z" fill="white"/>
<path d="M27.2142 40.6893H29.4855C29.6691 40.6893 29.8045 40.7272 29.8914 40.803C29.9784 40.8787 30.0219 40.9995 30.0219 41.1676C30.0219 41.357 29.9808 41.4872 29.8987 41.5606C29.8165 41.6316 29.6643 41.6672 29.442 41.6672H23.9546C23.7661 41.6672 23.6236 41.6245 23.5293 41.5417C23.4351 41.4588 23.3868 41.3333 23.3868 41.1676C23.3868 41.0019 23.4375 40.8859 23.5366 40.8077C23.6356 40.7296 23.7855 40.6893 23.9836 40.6893H26.1438V36.2359H24.7592C24.5659 36.2359 24.4161 36.1933 24.3146 36.108C24.2131 36.0228 24.1624 35.8997 24.1624 35.7387C24.1624 35.5777 24.2107 35.457 24.305 35.3765C24.3992 35.296 24.5418 35.2557 24.7302 35.2557H26.8034C26.9315 35.2557 27.0305 35.2818 27.1054 35.3315C27.1779 35.3836 27.2142 35.4522 27.2142 35.5398V40.687V40.6893ZM25.9045 33.2622C25.9045 32.7626 25.9505 32.4477 26.0423 32.3199C26.1341 32.1897 26.3322 32.1258 26.6343 32.1258C26.9363 32.1258 27.1199 32.1802 27.2142 32.2891C27.3084 32.398 27.3567 32.6561 27.3567 33.0633C27.3567 33.4705 27.3132 33.7073 27.2263 33.802C27.1393 33.8967 26.9411 33.9441 26.6343 33.9441C26.3274 33.9441 26.1341 33.8991 26.0423 33.8115C25.9505 33.7239 25.9045 33.5416 25.9045 33.2646V33.2622Z" fill="white"/>
<path d="M31.8966 40.6893V36.243H31.7613C31.44 36.243 31.2201 36.2051 31.0993 36.1317C30.9785 36.0583 30.918 35.9281 30.918 35.7434C30.918 35.5729 30.9688 35.4475 31.0679 35.3717C31.1669 35.2959 31.3264 35.2581 31.5487 35.2581H32.5611C32.6892 35.2581 32.7883 35.2841 32.8583 35.3338C32.9284 35.3859 32.9647 35.4546 32.9647 35.5422V36.0133C33.3102 35.6984 33.6509 35.4664 33.9867 35.3172C34.325 35.1681 34.6754 35.0923 35.0378 35.0923C35.7506 35.0923 36.3112 35.3101 36.7196 35.7434C37.1279 36.179 37.3309 36.7804 37.3309 37.5475V40.6893H37.6668C37.9036 40.6893 38.0751 40.7272 38.179 40.803C38.2829 40.8787 38.3361 40.9995 38.3361 41.1676C38.3361 41.3475 38.2805 41.4754 38.1694 41.5535C38.0582 41.6316 37.8601 41.6671 37.5774 41.6671H36.0092C35.7071 41.6671 35.5114 41.6316 35.4269 41.563C35.3423 41.4943 35.2988 41.3617 35.2988 41.1676C35.2988 40.9876 35.3495 40.8622 35.4486 40.7935C35.5477 40.7248 35.7361 40.6893 36.0116 40.6893H36.2605V37.8032C36.2605 37.261 36.1348 36.8491 35.8835 36.565C35.6322 36.2809 35.2698 36.1388 34.7914 36.1388C34.3129 36.1388 33.8828 36.2974 33.5132 36.6171C33.1435 36.9367 32.9598 37.3321 32.9598 37.8032V40.6893H33.2087C33.4914 40.6893 33.6823 40.7248 33.7814 40.7935C33.8804 40.8622 33.9312 40.9876 33.9312 41.1676C33.9312 41.3617 33.8877 41.4943 33.8031 41.563C33.7185 41.6316 33.5107 41.6671 33.1797 41.6671H31.51C31.3167 41.6671 31.1718 41.6269 31.0751 41.5464C30.9785 41.4659 30.9301 41.3404 30.9301 41.1676C30.9301 40.9829 30.9857 40.8574 31.0969 40.7888C31.208 40.7225 31.4231 40.6893 31.7444 40.6893H31.8942H31.8966Z" fill="white"/>
<path d="M44.6867 40.6775C44.88 40.6775 45.0274 40.7201 45.1289 40.803C45.2304 40.8858 45.2811 41.009 45.2811 41.17C45.2811 41.331 45.2328 41.4612 45.1362 41.544C45.0395 41.6269 44.8994 41.6695 44.7157 41.6695H40.0861C39.8928 41.6695 39.7454 41.6269 39.6439 41.544C39.5424 41.4612 39.4917 41.3357 39.4917 41.17C39.4917 41.0042 39.54 40.8858 39.6367 40.803C39.7333 40.7201 39.8735 40.6775 40.0571 40.6775H41.2604V36.4395H40.1006C39.9073 36.4395 39.7575 36.3945 39.6512 36.3069C39.5448 36.2193 39.4917 36.0938 39.4917 35.9328C39.4917 35.7718 39.5424 35.6416 39.6415 35.5588C39.7406 35.4759 39.8855 35.4333 40.074 35.4333H41.1928V34.9621C41.1928 34.1264 41.4368 33.5179 41.9225 33.1414C42.4082 32.765 43.1934 32.5756 44.2808 32.5756C44.81 32.5756 45.199 32.6348 45.4527 32.7484C45.704 32.8644 45.832 33.0444 45.832 33.2906C45.832 33.435 45.7789 33.551 45.6702 33.6434C45.5614 33.7357 45.4213 33.7831 45.2521 33.7831C45.1676 33.7831 44.9622 33.7546 44.6408 33.7002C44.3194 33.6457 44.0392 33.6173 43.8096 33.6173C43.2756 33.6173 42.8938 33.7262 42.6619 33.9464C42.4299 34.1666 42.3139 34.5312 42.3139 35.0379V35.4333H44.8196C45.0129 35.4333 45.1603 35.4759 45.2618 35.5588C45.3633 35.6416 45.414 35.7671 45.414 35.9328C45.414 36.0891 45.3633 36.2146 45.2594 36.3045C45.1555 36.3945 45.0129 36.4395 44.8341 36.4395H42.384V40.6775H44.6916H44.6867Z" fill="white"/>
<path d="M54.197 38.4709C54.197 39.4605 53.8515 40.2702 53.1628 40.8977C52.4742 41.5274 51.5802 41.84 50.4808 41.84C49.3813 41.84 48.4946 41.5251 47.8059 40.8977C47.1173 40.2679 46.7717 39.4605 46.7717 38.4709C46.7717 37.4812 47.1173 36.6739 47.8059 36.0465C48.4946 35.419 49.3862 35.1065 50.4808 35.1065C51.5753 35.1065 52.4694 35.4214 53.1604 36.0488C53.8515 36.6786 54.197 37.4836 54.197 38.4685V38.4709ZM50.4808 40.8645C51.2081 40.8645 51.8025 40.6396 52.2688 40.1897C52.7327 39.7399 52.9671 39.1669 52.9671 38.4685C52.9671 37.7701 52.7327 37.1947 52.2664 36.7402C51.8001 36.2856 51.2056 36.0583 50.4832 36.0583C49.7607 36.0583 49.1687 36.2856 48.7024 36.7402C48.236 37.1947 48.0041 37.7701 48.0041 38.4685C48.0041 39.1669 48.236 39.7446 48.6975 40.1921C49.159 40.6396 49.7559 40.8645 50.4808 40.8645Z" fill="white"/>
<path d="M57.7632 40.6893H60.1142C60.2979 40.6893 60.4332 40.7272 60.5202 40.803C60.6072 40.8787 60.6507 40.9995 60.6507 41.1676C60.6507 41.357 60.6096 41.4872 60.5274 41.5606C60.4453 41.6316 60.2931 41.6671 60.0708 41.6671H55.4411C55.2575 41.6671 55.1173 41.6245 55.0231 41.5417C54.9289 41.4588 54.8805 41.3333 54.8805 41.1676C54.8805 41.0019 54.9289 40.8858 55.0255 40.8077C55.1222 40.7296 55.272 40.6893 55.475 40.6893H56.7073V36.2359H56.2264C55.7697 36.2359 55.4822 36.2004 55.3711 36.1293C55.2575 36.0583 55.2019 35.9281 55.2019 35.7411C55.2019 35.5801 55.2478 35.4593 55.3396 35.3788C55.4315 35.2983 55.5716 35.2581 55.7601 35.2581H57.3742C57.5022 35.2581 57.5989 35.2817 57.6641 35.3315C57.7294 35.3812 57.7632 35.4498 57.7632 35.5422V36.7212C58.2126 36.172 58.679 35.7624 59.1646 35.4925C59.6503 35.2249 60.1747 35.09 60.7352 35.09C61.1557 35.09 61.494 35.1728 61.7549 35.3386C62.0135 35.5043 62.1439 35.7174 62.1439 35.9802C62.1439 36.1507 62.0787 36.3022 61.9482 36.4324C61.8177 36.5626 61.6752 36.6289 61.5205 36.6289C61.4118 36.6289 61.2282 36.5579 60.972 36.4182C60.7159 36.2761 60.4839 36.2075 60.281 36.2075C59.9137 36.2075 59.5247 36.3353 59.1163 36.5934C58.708 36.8515 58.2561 37.2563 57.7608 37.8127V40.6893H57.7632Z" fill="white"/>
<path d="M69.7821 37.8056C69.7821 37.1545 69.7217 36.7141 69.6033 36.4845C69.4849 36.2548 69.2771 36.1412 68.9872 36.1412C68.6392 36.1412 68.3638 36.2903 68.1584 36.5863C67.953 36.8822 67.8515 37.2895 67.8515 37.808V40.6941H67.9772C68.2623 40.6941 68.4532 40.7272 68.5498 40.7935C68.6465 40.8598 68.6948 40.9876 68.6948 41.1723C68.6948 41.3381 68.6537 41.4635 68.574 41.5464C68.4942 41.6293 68.371 41.6719 68.2067 41.6719H67.3078C67.1049 41.6719 66.9671 41.6269 66.8947 41.5322C66.8222 41.4399 66.7859 41.241 66.7859 40.9356V37.2658C66.7859 36.9201 66.7062 36.6455 66.5443 36.4442C66.3824 36.243 66.1649 36.1435 65.8871 36.1435C65.6744 36.1435 65.4811 36.2051 65.3023 36.3282C65.1259 36.4513 64.9737 36.6336 64.8456 36.8728V40.6941H65.1066C65.3869 40.6941 65.5778 40.7296 65.6768 40.7982C65.7759 40.8669 65.8242 40.9924 65.8242 41.1723C65.8242 41.3617 65.7832 41.4919 65.7034 41.5653C65.6237 41.6364 65.4715 41.6719 65.2443 41.6719H63.3669C63.1832 41.6719 63.0479 41.6316 62.9609 41.5511C62.8739 41.4706 62.8304 41.3452 62.8304 41.1723C62.8304 40.9876 62.886 40.8622 62.9948 40.7935C63.1059 40.7272 63.3185 40.6941 63.6375 40.6941H63.7776V36.2406H63.652C63.3234 36.2406 63.1011 36.2027 62.9803 36.1317C62.8619 36.0583 62.8015 35.9305 62.8015 35.7458C62.8015 35.5848 62.8498 35.464 62.944 35.3835C63.0382 35.3031 63.1808 35.2628 63.3693 35.2628H64.4518C64.6064 35.2628 64.7103 35.2888 64.7587 35.3409C64.8094 35.393 64.8384 35.5043 64.8481 35.6748C65.0414 35.4711 65.2492 35.322 65.4715 35.2249C65.6938 35.1278 65.9451 35.0805 66.2229 35.0805C66.554 35.0805 66.827 35.1515 67.0421 35.2912C67.2571 35.4309 67.4166 35.644 67.5205 35.9305C67.7186 35.6416 67.9482 35.4262 68.2067 35.2888C68.4677 35.1515 68.7649 35.0805 69.0983 35.0805C69.7072 35.0805 70.1518 35.2746 70.4345 35.6629C70.7148 36.0512 70.855 36.681 70.855 37.5499V40.6917H70.9661C71.2561 40.6917 71.4494 40.7272 71.5485 40.7959C71.6475 40.8645 71.6958 40.99 71.6958 41.17C71.6958 41.3357 71.6523 41.4612 71.5678 41.544C71.4832 41.6269 71.3576 41.6695 71.1933 41.6695H70.3379C70.1494 41.6695 70.0093 41.6151 69.9199 41.5038C69.8305 41.3925 69.7846 41.2173 69.7846 40.9758V37.8056H69.7821Z" fill="white"/>
<path d="M77.4852 40.7888C77.0986 41.1321 76.6782 41.3925 76.2215 41.5724C75.7648 41.7524 75.2985 41.8423 74.8152 41.8423C74.1121 41.8423 73.5443 41.6506 73.1117 41.267C72.6792 40.8835 72.4642 40.3839 72.4642 39.7683C72.4642 39.0367 72.7517 38.4709 73.3244 38.0684C73.897 37.6659 74.7041 37.4647 75.7407 37.4647C76.0137 37.4647 76.2916 37.4812 76.5695 37.5167C76.8473 37.5523 77.1325 37.6067 77.4248 37.6801V37.6304C77.4248 37.0977 77.2944 36.7047 77.0358 36.4513C76.7773 36.198 76.3737 36.0701 75.8252 36.0701C75.458 36.0701 75.0472 36.1672 74.5929 36.3614C74.1387 36.5555 73.839 36.6526 73.6941 36.6526C73.5563 36.6526 73.4428 36.5981 73.3534 36.4892C73.264 36.3803 73.2181 36.2406 73.2181 36.0701C73.2181 35.7979 73.479 35.5658 74.0009 35.3764C74.5229 35.187 75.1898 35.0923 76.0016 35.0923C76.8135 35.0923 77.4611 35.3007 77.8839 35.7126C78.3092 36.127 78.5218 36.7378 78.5218 37.5475V40.6893H78.8698C79.2056 40.6893 79.4279 40.7248 79.5415 40.7935C79.6551 40.8622 79.7107 40.9876 79.7107 41.1676C79.7107 41.3333 79.6623 41.4588 79.5681 41.5417C79.4738 41.6245 79.3313 41.6671 79.1428 41.6671H78.0313C77.8984 41.6671 77.7897 41.6269 77.7051 41.5488C77.6206 41.4706 77.5626 41.357 77.536 41.2078L77.4804 40.784L77.4852 40.7888ZM77.4272 38.6035C77.1687 38.5206 76.9174 38.459 76.6734 38.4188C76.4293 38.3785 76.1877 38.3596 75.9485 38.3596C75.2212 38.3596 74.6485 38.4804 74.2281 38.7195C73.8076 38.961 73.5974 39.283 73.5974 39.6902C73.5974 40.0051 73.7279 40.2632 73.9913 40.4668C74.2522 40.6704 74.5881 40.7722 74.994 40.7722C75.5933 40.7722 76.149 40.6183 76.6613 40.3105C77.1735 40.0027 77.4297 39.6831 77.4297 39.3493V38.6011L77.4272 38.6035Z" fill="white"/>
<path d="M35.5027 28.3801C36.9604 28.3962 38.4182 28.4123 39.876 28.4283C41.4829 28.4467 43.0947 28.5109 44.6992 28.3664C46.1257 28.2379 47.5498 27.9856 48.9258 27.6048C50.3017 27.224 51.8052 26.6804 53.0537 25.8821C54.3816 25.0333 55.3294 23.8313 56.3349 22.6638C57.4246 21.3998 58.5096 20.1198 59.7677 19.0004C60.078 18.7251 60.3979 18.4568 60.7299 18.2067C61.0619 17.9567 61.2158 17.842 61.5406 17.647C61.6777 17.5644 61.822 17.4979 61.9615 17.4176C62.0602 17.3626 61.8966 17.4474 61.8918 17.4497C61.9255 17.4337 61.9591 17.4176 61.9928 17.4039C62.0722 17.3694 62.1516 17.335 62.231 17.3029C62.3007 17.2754 62.3705 17.2525 62.4379 17.2249C62.6327 17.1492 62.2454 17.2777 62.4451 17.2203C62.486 17.2089 62.9238 17.0644 62.9406 17.0942C62.943 17.0988 62.7145 17.1309 62.8348 17.1148C62.8709 17.1102 62.9069 17.1034 62.9406 17.0965C63.0128 17.085 63.0825 17.0758 63.1547 17.0667C63.2197 17.0598 63.3039 17.0391 63.3688 17.046C63.3688 17.046 63.1667 17.046 63.2822 17.0529C63.3279 17.0529 63.376 17.0506 63.4241 17.0506C63.5059 17.0506 63.5877 17.0552 63.6695 17.0575C63.8427 17.0598 63.5444 17.0345 63.7128 17.0598C63.8595 17.0827 64.0039 17.1056 64.1506 17.1378C64.1843 17.1446 64.2156 17.1538 64.2492 17.163C64.2372 17.1584 64.1386 17.1286 64.2204 17.1561C64.2829 17.1791 64.3479 17.1997 64.4104 17.2249C64.5572 17.2823 64.6991 17.3511 64.8338 17.4314C64.8579 17.4451 64.8579 17.4429 64.9252 17.491C64.9805 17.5323 65.0359 17.5736 65.0888 17.6149C65.2067 17.7112 65.3173 17.8168 65.4184 17.9292C65.6324 18.1654 65.7912 18.4246 65.9259 18.7091L66.0005 18.4315C65.0262 19.6129 64.853 21.4182 65.4111 22.8014C65.6974 23.5148 66.1857 24.0974 66.905 24.4484C67.6603 24.8177 68.5769 24.8865 69.4044 24.7627C70.4821 24.6021 71.5429 24.1341 72.2141 23.2946C71.5429 23.3794 70.8694 23.4666 70.1982 23.5515C70.2584 24.1915 70.4268 24.8452 70.8477 25.3591C71.3192 25.9326 72.0818 26.0564 72.8035 25.9738L71.9062 25.71C71.9062 26.3088 71.9062 26.9075 71.9038 27.5062C71.9398 27.6048 72.012 27.6713 72.1131 27.7103C75.1417 29.1257 78.7933 28.0292 81.4034 26.2881L79.7147 26.2789C79.8542 27.2401 80.4941 28.1232 81.4395 28.5132C82.6013 28.9926 84.1241 28.7059 85.0358 27.8778L83.157 27.9971C83.3206 28.6485 83.6309 29.3138 84.1818 29.7496C84.6822 30.1464 85.3076 30.3644 85.9499 30.4309C87.285 30.5708 88.5936 30.2634 89.871 29.9262C90.0971 29.8666 90.3256 29.8138 90.5542 29.7588C90.5542 29.7588 90.227 29.8024 90.4387 29.784C90.4916 29.7794 90.6624 29.7657 90.4387 29.7771C90.215 29.7886 90.3665 29.7817 90.4194 29.784C90.2511 29.7771 90.2342 29.7794 90.1139 29.7335C90.5734 29.9125 91.1796 29.7748 91.5934 29.5386C91.8484 29.3917 92.2525 28.972 91.7858 28.7907C91.2614 28.5889 90.6456 28.7219 90.1212 28.8435C89.6593 28.9513 89.2022 29.0867 88.7404 29.1945C88.6032 29.2266 88.4661 29.2541 88.3314 29.2839C88.1558 29.3229 88.6225 29.2335 88.3771 29.2748C88.2977 29.2885 88.2183 29.3023 88.1366 29.3138C88.0019 29.3344 87.8695 29.3505 87.7348 29.3642C87.7084 29.3665 87.5713 29.3963 87.5472 29.3803C87.5664 29.394 87.7902 29.3711 87.6482 29.3734C87.6025 29.3734 87.5592 29.3757 87.5135 29.378C87.4029 29.378 87.22 29.4078 87.1166 29.3665C87.2465 29.417 87.2802 29.3849 87.1936 29.3734C87.1599 29.3688 87.1238 29.3642 87.0901 29.3596C87.0132 29.3482 86.9362 29.3344 86.8616 29.3183C86.8039 29.3069 86.7461 29.2885 86.6884 29.2771C86.8929 29.3229 86.6932 29.2748 86.6379 29.2541C86.5104 29.2059 86.3901 29.1486 86.2722 29.0821C86.1712 29.0247 86.2602 29.0752 86.2795 29.089C86.2434 29.0637 86.2097 29.0408 86.176 29.0133C86.1135 28.9651 86.0533 28.9146 85.9956 28.8619C85.8753 28.7472 85.7671 28.621 85.6733 28.488C85.5025 28.2448 85.3437 27.8113 85.2571 27.4649C85.1873 27.1873 84.7038 27.1804 84.4921 27.1942C84.1217 27.2171 83.655 27.3318 83.3783 27.5842C83.3399 27.6209 83.1017 27.786 83.3038 27.6621C83.0608 27.809 83.412 27.6323 83.2557 27.6966C83.145 27.7356 83.1763 27.7264 83.3495 27.6667C83.2364 27.6943 83.2701 27.6874 83.4505 27.6507C83.246 27.6805 83.6598 27.6621 83.4674 27.653C83.4265 27.653 83.3856 27.653 83.3423 27.6484C83.4722 27.6599 83.4866 27.6599 83.388 27.6484C83.3519 27.6392 83.0993 27.5681 83.2701 27.6277C83.1161 27.5727 82.9646 27.5108 82.8275 27.4259C82.3006 27.1024 81.9133 26.4166 81.8147 25.7445C81.7786 25.5059 81.3601 25.4692 81.1821 25.4646C80.8405 25.4577 80.4123 25.5449 80.126 25.7353C79.8398 25.9257 79.5607 26.1 79.2672 26.2652C79.1205 26.3477 78.9737 26.4257 78.8246 26.5014C78.7645 26.5313 78.7043 26.5611 78.6442 26.5909C78.8029 26.5129 78.5191 26.646 78.5167 26.646C78.2304 26.7721 77.9369 26.8822 77.6386 26.9855C77.5184 27.0267 77.7854 26.9465 77.5833 27.0015C77.5039 27.0222 77.427 27.0474 77.3476 27.068C77.1912 27.1093 77.0324 27.1437 76.8761 27.1781C76.7029 27.2171 77.1287 27.1414 76.828 27.185C76.7654 27.1942 76.7005 27.2057 76.6379 27.2125C76.4816 27.2332 76.3228 27.2515 76.164 27.2607C76.3445 27.2492 76.1304 27.2607 76.0943 27.2607C76.0149 27.2607 75.9355 27.2607 75.8585 27.2607C75.7815 27.2607 75.7022 27.2561 75.6228 27.2538C75.6011 27.2538 75.4063 27.2378 75.5266 27.2492C74.9011 27.1919 74.3526 27.029 73.7921 26.7675L74.0014 26.9717C74.0014 26.373 74.0014 25.7743 74.0038 25.1756C74.0038 24.8613 73.2749 24.8934 73.1066 24.9118C72.9478 24.9301 73.1402 24.9118 73.2076 24.9118C73.3471 24.9118 73.133 24.8797 73.2268 24.9164C73.3206 24.9531 73.1595 24.8911 73.1402 24.882C73.1017 24.8659 73.0633 24.8452 73.0272 24.8246C73.1042 24.8751 72.9935 24.7902 72.9815 24.7787C72.943 24.7397 72.8997 24.7053 72.8612 24.664C72.7986 24.5952 72.7385 24.5218 72.6904 24.4438C72.4282 24.0217 72.3368 23.4941 72.2911 23.0147C72.2622 22.7028 71.5862 22.7234 71.3938 22.7509C70.9921 22.8083 70.5302 22.9528 70.2752 23.2716C70.2584 23.2946 70.0683 23.4941 70.1694 23.4001C70.0996 23.4666 70.025 23.524 69.9504 23.5836C70.1188 23.4483 69.8783 23.6226 69.8374 23.6455C69.7388 23.696 69.7532 23.6914 69.8807 23.6295C69.8374 23.6478 69.7917 23.6662 69.746 23.6845C69.6329 23.7258 69.6546 23.7189 69.8133 23.6662C69.7676 23.6799 69.7195 23.6937 69.6738 23.7052C69.4669 23.7671 69.9023 23.6822 69.669 23.7052C69.6065 23.7121 69.2889 23.7189 69.568 23.7212C69.4693 23.7212 69.3731 23.7212 69.2745 23.7167C69.4958 23.7258 69.1879 23.7006 69.1446 23.6937C69.1181 23.6891 68.8415 23.6203 68.981 23.6616C68.8198 23.6134 68.6635 23.5469 68.5143 23.4712C68.2521 23.3336 67.9634 23.0652 67.771 22.7807C66.9411 21.5489 67.0108 19.5808 67.9466 18.4499C68.0164 18.3673 68.0404 18.2755 68.0212 18.1723C67.4487 16.9474 66.3445 16.1468 64.9372 15.9954C63.3616 15.8257 61.7402 16.2477 60.3835 17.0139C58.8656 17.8695 57.593 19.1059 56.4239 20.3492C55.2548 21.5925 54.1386 22.9711 52.9719 24.2672C52.9046 24.3406 52.8396 24.4163 52.7699 24.4897C52.7482 24.5126 52.6207 24.6503 52.6664 24.6021C52.7242 24.5425 52.6448 24.6227 52.6376 24.6273C52.6039 24.6571 52.5726 24.6893 52.5389 24.7214C52.4788 24.7764 52.4186 24.8292 52.3561 24.882C52.2479 24.9737 52.1372 25.0609 52.0241 25.1457C51.9568 25.1962 51.887 25.2444 51.8197 25.2926C51.9616 25.1893 51.7884 25.3109 51.7355 25.3453C51.4588 25.5219 51.1702 25.6802 50.8767 25.8293C50.843 25.8454 50.6337 25.9463 50.7492 25.8936C50.8646 25.8408 50.6506 25.9371 50.6169 25.9532C50.4461 26.0289 50.2729 26.1 50.0997 26.1688C49.9361 26.2331 49.7701 26.295 49.6065 26.3546C49.5296 26.3822 49.4526 26.4097 49.3732 26.4349C49.3347 26.4487 49.2962 26.4601 49.2553 26.4739C49.1062 26.5244 49.443 26.4166 49.2938 26.4624C48.9498 26.568 48.6058 26.6689 48.257 26.7561C47.9082 26.8432 47.5594 26.9235 47.2082 26.9946C47.1962 26.9946 47.0903 27.0107 47.0879 27.0176C47.0879 27.0176 47.2972 26.9786 47.1697 27.0015C47.0759 27.0176 46.9821 27.0359 46.8906 27.052C46.7198 27.0818 46.5466 27.1093 46.3759 27.1368C46.0415 27.1873 45.7071 27.2309 45.3727 27.2653C45.2116 27.2814 45.0504 27.2974 44.8892 27.3112C44.817 27.3181 44.7449 27.3227 44.6727 27.3295C44.6294 27.3318 44.3744 27.3502 44.5212 27.341C44.6775 27.3318 44.4081 27.3456 44.3768 27.3479C44.3095 27.3502 44.2421 27.3548 44.1748 27.3571C44.0352 27.3616 43.8933 27.3639 43.7514 27.3662C43.6263 27.3662 43.5012 27.3662 43.3761 27.3662C42.7579 27.3594 42.142 27.3525 41.5238 27.3456C39.8303 27.3272 38.1344 27.2928 36.4408 27.2882C36.4048 27.2882 36.3687 27.2882 36.3326 27.2882C35.8731 27.2837 35.2236 27.4396 34.9494 27.825C34.6752 28.2104 35.1851 28.3778 35.5075 28.3801H35.5027Z" fill="white"/>
<path d="M1.8957 23.2327C2.82702 22.1032 3.75593 20.976 4.68725 19.8465C6.17254 18.0463 7.65782 16.246 9.1431 14.4435C9.4866 14.0266 9.8301 13.6097 10.1736 13.1952L9.48176 13.5701C10.6695 13.3349 11.8548 13.102 13.0426 12.8668C13.4248 12.7923 13.8263 12.5198 13.9279 12.1472C14.4988 10.0465 15.0697 7.94821 15.643 5.84756L15.8825 4.96724L15.2705 5.59371C16.0446 5.17218 16.8163 4.75298 17.5903 4.33146C17.629 4.3105 17.6677 4.28954 17.7065 4.26858C18.0403 4.08692 18.2169 3.88431 18.4128 3.57923C18.7055 3.12742 18.9982 2.67562 19.2933 2.22615C19.6126 1.73708 19.9344 1.25034 20.2561 0.761277L18.2919 1.10828C19.2546 2.44739 20.2174 3.7865 21.1802 5.12561C21.5745 5.67289 21.9373 6.28073 22.38 6.79309C22.5639 7.00502 22.8324 7.05159 23.0936 7.11913L24.4459 7.47778C25.3385 7.71532 26.2335 7.95054 27.1261 8.18809L26.6956 7.82478C27.4213 9.4224 28.1494 11.0223 28.8751 12.62C28.9864 12.8645 29.0904 13.1114 29.2089 13.3536C29.3758 13.6982 29.6395 13.7425 29.9685 13.8054L32.9657 14.3922C33.8148 14.5576 34.6638 14.7253 35.5153 14.8906L35.167 14.6833C35.9628 15.722 36.7587 16.7607 37.5546 17.7994L39.3035 20.0817C39.6422 20.5242 39.9639 20.983 40.3219 21.4115C40.5348 21.6653 40.8807 21.7329 41.1904 21.8284L43.0893 22.4176C44.9737 23.0021 46.8606 23.5867 48.745 24.1712C49.9714 24.5508 51.193 24.9607 52.4292 25.3147C52.4509 25.3217 52.4703 25.3263 52.4896 25.3333C52.9759 25.4847 53.6338 25.31 53.9773 24.9491C54.3015 24.6091 54.1829 24.2038 53.7306 24.0641C52.4001 23.6519 51.0697 23.2397 49.7416 22.8275L43.4159 20.8665C42.9296 20.7152 42.4434 20.5661 41.9596 20.4147L42.3079 20.622C41.038 18.9638 39.768 17.3033 38.498 15.6452L37.5255 14.3759C37.3877 14.1966 37.2619 13.9963 37.107 13.831C36.8651 13.5725 36.3959 13.5515 36.0644 13.4863L34.2115 13.123C33.106 12.9064 32.0029 12.6898 30.8974 12.4732L31.328 12.8365C30.6918 11.4369 30.0556 10.0349 29.4194 8.63523L28.9622 7.62916C28.8437 7.36832 28.759 7.08886 28.4711 6.95844C28.251 6.8583 27.9946 6.81638 27.7623 6.75583L26.3859 6.39019C25.5876 6.17826 24.7894 5.96866 23.9935 5.75673L24.3418 5.964C23.1444 4.29885 21.9494 2.63603 20.752 0.970876C20.5803 0.731001 20.4061 0.491126 20.2343 0.248922C20.0336 -0.0305438 19.5256 -0.0235572 19.2353 0.0276783C18.8507 0.0952159 18.4854 0.272211 18.2701 0.595926C17.5976 1.61132 16.9324 2.62904 16.2744 3.65142L16.8235 3.20195C16.1438 3.57224 15.464 3.94253 14.7819 4.31283C14.3875 4.52708 13.9013 4.72038 13.7659 5.16753C13.7199 5.31425 13.6836 5.46562 13.6449 5.61467C13.1805 7.32407 12.7136 9.0358 12.2491 10.7452C12.104 11.2762 11.9588 11.8072 11.8161 12.3382L12.7015 11.6185C11.5428 11.8468 10.372 12.0494 9.21809 12.3056C8.40046 12.4872 7.93117 13.3209 7.44252 13.9148C5.54843 16.2111 3.65675 18.505 1.76265 20.8013C1.23288 21.4441 0.700698 22.0892 0.170932 22.732C-0.104837 23.0673 -0.0637139 23.4912 0.417672 23.6169C0.899059 23.7427 1.58848 23.6169 1.90537 23.2327H1.8957Z" fill="white"/>
</svg>
