<svg width="23" height="12" viewBox="0 0 23 12" fill="none" xmlns="http://www.w3.org/2000/svg">
<path d="M0.75 4.77295C0.335786 4.77295 0 5.10874 0 5.52295C0 5.93716 0.335786 6.27295 0.75 6.27295V5.52295V4.77295ZM22.2831 6.05328C22.576 5.76039 22.576 5.28551 22.2831 4.99262L17.5101 0.219648C17.2172 -0.073245 16.7423 -0.073245 16.4495 0.219648C16.1566 0.512542 16.1566 0.987415 16.4495 1.28031L20.6921 5.52295L16.4495 9.76559C16.1566 10.0585 16.1566 10.5334 16.4495 10.8263C16.7423 11.1191 17.2172 11.1191 17.5101 10.8263L22.2831 6.05328ZM0.75 5.52295V6.27295H21.7528V5.52295V4.77295H0.75V5.52295Z" fill="#A7A7A7"/>
</svg>
