<svg width="22" height="26" viewBox="0 0 22 26" fill="none" xmlns="http://www.w3.org/2000/svg">
<path d="M17.4541 4.07333C16.4952 2.94598 15.9667 1.49847 15.9668 0H11.6314V17.9111C11.5986 18.8806 11.2014 19.7991 10.5234 20.4728C9.84541 21.1466 8.93974 21.5228 7.99745 21.5222C6.0051 21.5222 4.34949 19.8467 4.34949 17.7667C4.34949 15.2822 6.67857 13.4189 9.07781 14.1844V9.62C4.23725 8.95555 0 12.8267 0 17.7667C0 22.5767 3.87245 26 7.98342 26C12.389 26 15.9668 22.3167 15.9668 17.7667V8.68111C17.7249 9.98089 19.8356 10.6783 22 10.6744V6.21111C22 6.21111 19.3622 6.34111 17.4541 4.07333Z" fill="black"/>
</svg>
